<svg width="20" height="20" viewBox="0 0 20 20" fill="none" xmlns="http://www.w3.org/2000/svg">
<path d="M7.49986 8.74998C8.19022 8.74998 8.74986 8.19034 8.74986 7.49998C8.74986 6.80962 8.19022 6.24998 7.49986 6.24998C6.8095 6.24998 6.24986 6.80962 6.24986 7.49998C6.24986 8.19034 6.8095 8.74998 7.49986 8.74998Z" fill="white"/>
<path fill-rule="evenodd" clip-rule="evenodd" d="M7.88454 2.5H12.1152C12.9048 2.49999 13.5429 2.49999 14.0599 2.54223C14.5927 2.58575 15.0625 2.67784 15.4978 2.89964C16.1878 3.25118 16.7487 3.81211 17.1002 4.50204C17.322 4.93734 17.4141 5.40719 17.4577 5.93993C17.4999 6.45695 17.4999 7.09508 17.4999 7.88466V12.1153C17.4999 12.9049 17.4999 13.5431 17.4577 14.0601C17.4141 14.5928 17.322 15.0627 17.1002 15.498C16.7487 16.1879 16.1878 16.7488 15.4978 17.1004C15.0625 17.3222 14.5927 17.4142 14.0599 17.4578C13.5429 17.5 12.9048 17.5 12.1152 17.5H7.88453C7.09495 17.5 6.45683 17.5 5.93981 17.4578C5.40707 17.4142 4.93722 17.3222 4.50191 17.1004C3.81199 16.7488 3.25106 16.1879 2.89952 15.498C2.67772 15.0627 2.58563 14.5928 2.54211 14.0601C2.49986 13.5431 2.49987 12.9049 2.49988 12.1153V7.88466C2.49987 7.09508 2.49986 6.45695 2.54211 5.93993C2.58563 5.40719 2.67772 4.93734 2.89952 4.50204C3.25106 3.81211 3.81199 3.25118 4.50191 2.89964C4.93722 2.67784 5.40707 2.58575 5.93981 2.54223C6.45683 2.49999 7.09496 2.49999 7.88454 2.5ZM6.06196 4.03725C5.62198 4.07319 5.3715 4.14005 5.1829 4.23615C4.77521 4.44388 4.44376 4.77534 4.23603 5.18302C4.13993 5.37162 4.07307 5.6221 4.03712 6.06208C4.00046 6.51081 3.99988 7.08755 3.99988 7.91666V12.0833C3.99988 12.9125 4.00046 13.4892 4.03712 13.9379C4.04009 13.9742 4.04327 14.0092 4.04665 14.043L6.4574 11.6323C6.60778 11.4819 6.75086 11.3388 6.88126 11.2281C7.02341 11.1074 7.19927 10.9817 7.42681 10.9081C7.74573 10.8049 8.08919 10.8056 8.40771 10.91C8.63496 10.9845 8.81032 11.1109 8.95201 11.2321C9.08198 11.3433 9.22449 11.4869 9.37428 11.6379L10.002 12.2706L12.3025 9.9701C12.4524 9.82023 12.595 9.6776 12.725 9.56724C12.8667 9.44689 13.042 9.32154 13.2688 9.24785C13.5868 9.14452 13.9294 9.14452 14.2474 9.24785C14.4742 9.32154 14.6495 9.44689 14.7912 9.56724C14.9212 9.6776 15.0639 9.82024 15.2137 9.97012L15.9999 10.7563V7.91667C15.9999 7.08755 15.9993 6.51082 15.9626 6.06208C15.9267 5.6221 15.8598 5.37162 15.7637 5.18302C15.556 4.77534 15.2245 4.44388 14.8169 4.23615C14.6283 4.14005 14.3778 4.07319 13.9378 4.03725C13.4891 4.00058 12.9123 4 12.0832 4H7.91654C7.08743 4 6.51069 4.00058 6.06196 4.03725ZM5.1829 15.7638C5.02397 15.6829 4.87662 15.5831 4.74368 15.4673L7.50047 12.7105C7.67483 12.5362 7.77406 12.4378 7.85188 12.3717C7.87646 12.3509 7.89282 12.3386 7.90221 12.3321C7.91035 12.3309 7.91863 12.3309 7.92677 12.3321C7.93613 12.3387 7.95245 12.351 7.97695 12.372C8.05451 12.4383 8.15335 12.5371 8.32703 12.7121L9.46757 13.8616C9.60803 14.0031 9.79908 14.0829 9.9985 14.0833C10.1979 14.0837 10.3893 14.0047 10.5303 13.8636L13.3456 11.0483C13.5194 10.8746 13.6182 10.7765 13.6957 10.7107C13.7202 10.69 13.7365 10.6778 13.7458 10.6713C13.754 10.67 13.7622 10.67 13.7704 10.6713C13.7797 10.6778 13.796 10.69 13.8205 10.7107C13.898 10.7765 13.9968 10.8746 14.1706 11.0483L15.9981 12.8758C15.9949 13.3054 15.9863 13.6483 15.9626 13.9379C15.9267 14.3779 15.8598 14.6284 15.7637 14.817C15.556 15.2247 15.2245 15.5561 14.8169 15.7638C14.6283 15.8599 14.3778 15.9268 13.9378 15.9628C13.4891 15.9994 12.9123 16 12.0832 16H7.91654C7.08742 16 6.51069 15.9994 6.06196 15.9628C5.62198 15.9268 5.3715 15.8599 5.1829 15.7638Z" fill="white"/>
</svg>
