<svg width="20" height="36" viewBox="0 0 20 36" fill="none" xmlns="http://www.w3.org/2000/svg">
<path d="M7.5 14.5C8.05228 14.5 8.5 14.9477 8.5 15.5C8.5 16.0523 8.05228 16.5 7.5 16.5C6.94772 16.5 6.5 16.0523 6.5 15.5C6.5 14.9477 6.94772 14.5 7.5 14.5Z" fill="white"/>
<path fill-rule="evenodd" clip-rule="evenodd" d="M13.7998 12C15.0147 12.0001 16 12.9852 16 14.2002V24H4V14.2002C4 12.9852 4.98517 12 6.2002 12H13.7998ZM9.44238 21.3096L7.25293 19.6562L5.40039 21.5088V22.6006H14.6006V19.8174L12.7725 17.9893L9.44238 21.3096ZM6.2002 13.4004C5.75837 13.4004 5.40039 13.7584 5.40039 14.2002V19.5303L6.69434 18.2363L7.125 17.8047L9.31445 19.459L12.7734 16.0107L14.6006 17.8379V14.2002C14.6006 13.7584 14.2415 13.4005 13.7998 13.4004H6.2002Z" fill="white"/>
</svg>
